<svg id="self" xmlns="http://www.w3.org/2000/svg" viewBox="0 0 637 781.21"><defs><style>.cls-1{fill:#70553f;stroke:#56402f;stroke-width:5px;}.cls-1,.cls-6,.cls-7{stroke-miterlimit:10;}.cls-2{fill:#edcfb4;}.cls-3,.cls-4{fill:#a0846a;}.cls-3{opacity:0.8;}.cls-4{opacity:0.76;}.cls-5{fill:#a58367;}.cls-6{fill:#dddad9;stroke:#a0846a;}.cls-7{stroke:#0c0c0c;stroke-width:3px;}.cls-8{fill:#535454;}.cls-9{fill:#c16774;}.cls-10{fill:#6795bf;}</style></defs><title>vectorize-self</title><path class="cls-1" d="M256.63,391.21c3.45,5.6,33.44,62.86-43.41,181.38S228,732,228,732L205.73,422.6s128.41-294.1,23.43-31.46-65.44-259.56-58,74.44S129.72,202,153,455.13s-122.49-83.68,122.13-63c148.77,12.6,3-7-80.26-13.64-53.66-4.27-81.4-3.17,12.23,15.4,239,47.39,82.09-390.75,7.28-35.41S14.27,550,211.33,374.32s15.76,118,15.76,118" transform="translate(-103.23 -44.63)"/><g id="body"><g id="neck"><path class="cls-2" d="M465.4,625.88v-10a9.58,9.58,0,0,1-3.23.63,8.13,8.13,0,0,1-5,1.34,10,10,0,0,1-3.86.67c-8.18,0-8.18-6.62,0-6.64a9.58,9.58,0,0,1,3.26-.64,8.13,8.13,0,0,1,5.05-1.35,10.12,10.12,0,0,1,3.81.64V586H345.86v39.88c-87.54,4.09-129.71,50.41-129.71,94.29v99.09H595.11V720.17C595.11,676.28,547.79,625.88,465.4,625.88Z" transform="translate(-103.23 -44.63)"/><path class="cls-1" d="M445.5,141.63S421.42,262.68,562.21,303.47" transform="translate(-103.23 -44.63)"/></g><g id="rectangle"><path class="cls-3" d="M342.5,617l66.75,41.51L476,617H342.5Zm92.86,14a4.79,4.79,0,0,1-2.83.82c-6,0-6-8.19,0-8.22a4.66,4.66,0,0,1,2.39-.79,4.41,4.41,0,0,1,3.7-1.67c5.85,0,6,7.81.43,8.2A4.41,4.41,0,0,1,435.36,631Z" transform="translate(-103.23 -44.63)"/><path class="cls-2" d="M444,627.5c-1,0-1,3,0,3A1.5,1.5,0,0,0,444,627.5Z" transform="translate(-103.23 -44.63)"/></g><g id="shirt"><path class="cls-2" d="M430.31,352.59V633c-50.5,0-66.07-4.07-84.11-16.66-13.14-9.17-33.27-22.86-41.33-42.79-9.94-24.57-37.33-53.4-37.33-106,0-19.9-47.71-125.6-38.81-139.85,5.84-9.36,1.65-24.72,4.15-38.15,3.83-20.66,13.49-40.56,22-56.67,21.09-39.92,25.43-93.36,60.32-117,35.65-24.14,71.21-43.79,115.12-43.79V352.59Z" transform="translate(-103.23 -44.63)"/><path class="cls-2" d="M631.9,327.74c-0.65-11-4.15-24.49-4.15-38.15,0-19.33-1.22-40.79-1.22-59,0-26.67-6.31-52.88-15-76.51-7.54-20.5-33.28-38.85-49.49-49.82-35.65-24.14-88-32.11-132-32.11V633c4,0,7.47.08,10.32,0.22a1.33,1.33,0,0,0,.8.58,7.51,7.51,0,0,0,6.77-1.43c0.33-.2.66-0.42,1-0.65a6,6,0,0,0,5.51-4.41,5.2,5.2,0,0,0,1.37-1,5.66,5.66,0,0,1-.08,1.9c11.59-5.88,30.63-15.3,32.51-16.65,12.38-8.91,28.69-21.56,35.34-38,1.5-3.7,15.87-18,18-22,5.7-10.56,6.44-24.33,17.34-36,12.14-13,30-40.45,30-64C588.86,431.68,633.53,355.32,631.9,327.74Z" transform="translate(-103.23 -44.63)"/><path class="cls-2" d="M450.87,634.52l-4.87.27a5.32,5.32,0,0,1-1.5.21h-0.23c-5.09,4.7,7.78,4.4,8.66,1.42C453.28,635.22,451.88,634.76,450.87,634.52Z" transform="translate(-103.23 -44.63)"/><path class="cls-4" d="M455.82,627.35a5.4,5.4,0,0,1-.74,2.44A1.4,1.4,0,0,0,453,629a28,28,0,0,1-13,5c-1.9.22-1.92,3.22,0,3a33.54,33.54,0,0,0,4.29-.78l0,0a1.46,1.46,0,0,0-.45.33l-1.41.71a4.69,4.69,0,0,0-3,1.6,1.51,1.51,0,0,0,1.82,2.36l2.43-1.24c0.77-.1,1.59-0.1,2.32-0.25a9.11,9.11,0,0,0,3.37-1.48,5.24,5.24,0,0,0,1.65.26,4.53,4.53,0,0,0,4.24-2.5C458.48,634.41,458.67,629.36,455.82,627.35Z" transform="translate(-103.23 -44.63)"/><path class="cls-5" d="M459.91,361.81s10.47-11.41,20.47-11.41S507,348,507,348h24l14,4.65,9.5,2.35H536s-10.5-2.19-17.5-.09S500,357,500,357l-22.5,2Z" transform="translate(-103.23 -44.63)"/><polygon class="cls-5" points="233.77 283.37 248.77 283.37 267.77 288.87 283.77 295.37 295.77 303.37 295.77 308.37 287.77 310.27 272.77 303.37 258.77 296.82 242.27 290.87 233.77 283.37"/><ellipse class="cls-6" cx="357.67" cy="370.75" rx="9.75" ry="30" transform="translate(-154.2 639.8) rotate(-83.54)"/><ellipse class="cls-6" cx="500" cy="386.87" rx="9.75" ry="30" transform="translate(-17.89 819.44) rotate(-86.74)"/><path class="cls-7" d="M329,361.81s-3-.63-3-9.22" transform="translate(-103.23 -44.63)"/><path class="cls-7" d="M336,359.81s-3-.63-3-9.22" transform="translate(-103.23 -44.63)"/><path class="cls-7" d="M343.07,359.75s-3-.54-3.23-9.13" transform="translate(-103.23 -44.63)"/><path class="cls-7" d="M528.13,384.94S536,382.5,536,374.5" transform="translate(-103.23 -44.63)"/><path class="cls-7" d="M522.13,380.94S530,378.5,530,370.5" transform="translate(-103.23 -44.63)"/><path class="cls-7" d="M514.13,379.94S522,377.5,522,369.5" transform="translate(-103.23 -44.63)"/><path class="cls-8" d="M388,479.21s19,5.29,19,11.79" transform="translate(-103.23 -44.63)"/><path class="cls-8" d="M427,491s13.39-9.79,21.2-5.9" transform="translate(-103.23 -44.63)"/><polygon class="cls-9" points="243.24 459.37 271.27 467.37 287.77 467.37 300.77 475.37 320.77 475.37 335.77 475.37 349.76 479.37 364.77 479.37 341.77 479.37 319.77 479.37 287.77 479.37 269.77 474.37 243.24 459.37"/><path class="cls-9" d="M439,534H404l-2.25-1.38h0a33.13,33.13,0,0,1-13,.72l-2,0c-2.09.51-4.17,1.11-6.25,1.72L391,538h62Z" transform="translate(-103.23 -44.63)"/><rect class="cls-10" x="175.98" y="678.58" width="256.79" height="102.63" rx="12" ry="12"/><rect class="cls-10" x="197.14" y="582.72" width="15.79" height="95.86" rx="7.89" ry="7.89"/><rect class="cls-10" x="397.04" y="582.72" width="15.79" height="95.86" rx="7.89" ry="7.89"/></g></g><ellipse class="cls-1" cx="533.16" cy="207.42" rx="108.45" ry="192.62" transform="translate(-50.58 473.26) rotate(-54.13)"/><ellipse class="cls-1" cx="282.1" cy="222.55" rx="198.21" ry="81.58" transform="translate(-170.74 260.87) rotate(-51.62)"/><path class="cls-1" d="M511.67,259.08c-1.17,6.47-8.17,70.73,106.67,153s44.42,153.77,44.42,153.77L570.52,269.71s-227-226.87-33.3-20.72-33.9-265.52,81.21,48.1S560.7,36.62,631.48,280.73s83.45-122.64-136.69-14c-133.89,66.07-5.38-5.41,69.73-42,48.39-23.58,74.61-32.68-5.76,18.81C353.62,374.93,339.59-90.24,539,213.22s256.23,105.13,8.62,13.59S576.1,342.42,576.1,342.42" transform="translate(-103.23 -44.63)"/><path class="cls-1" d="M684.81,370.09c3.36,0.76,6.39,1.48,9,2.17C700.3,344.75,699.49,330.16,684.81,370.09Z" transform="translate(-103.23 -44.63)"/><path class="cls-1" d="M624,328.56q-4.49-6.28-8.57-11.64c1.3,11.79,2.84,25.44,4.65,41.08l8.74,1.47C627.28,349.72,625.64,339.15,624,328.56Z" transform="translate(-103.23 -44.63)"/><path class="cls-1" d="M646.89,362.63q-1.85-2.93-3.76-5.87c-0.08,1.74-.14,3.45-0.2,5.16Z" transform="translate(-103.23 -44.63)"/><path class="cls-1" d="M575,356.51l1.49,0.27c6.35,1.15,12.35,2.48,18.06,4l0,0v0.06a196.41,196.41,0,0,1,26.75,8.89c-0.07-.61-0.15-1.21-0.22-1.83-0.39-3.36-.77-6.62-1.14-9.81-17.37-2.88-35.2-5.65-51.18-8-10.2-59.19-8.14-105,46.53-33.09-12.91-117.46-1.6-52.66,8.57,11.64,5.76,8.06,12,17.25,18.82,27.66l0.34,0.53q0.35-8.12.83-16.59c17.63-310.29-174.57-75.24-78,9.42-54.43-7.89-85.06-10.34,3.87,6q-0.3-1.62-.58-3.23Q572,354.49,575,356.51Z" transform="translate(-103.23 -44.63)"/><path class="cls-1" d="M693.83,372.26c-0.48,2-1,4.15-1.56,6.32C710.67,378.5,708,376,693.83,372.26Z" transform="translate(-103.23 -44.63)"/><path class="cls-1" d="M681.83,378.41q1.58-4.5,3-8.32c-7.6-1.71-16.91-3.58-27.24-5.51-3.45-.65-7-1.3-10.68-2q4.64,7.34,8.83,14.53C666.25,377.8,674.88,378.2,681.83,378.41Z" transform="translate(-103.23 -44.63)"/><path class="cls-1" d="M628.78,359.47c0.79,5.13,1.54,10,2.23,14.59q1.5,0.75,3,1.52,3.79,0.4,7.76.68l0.73,0q0.18-7,.46-14.38C638.31,361.1,633.58,360.28,628.78,359.47Z" transform="translate(-103.23 -44.63)"/><path class="cls-1" d="M527.56,221.5c-0.48,6.56-.62,71.19,122.29,140.81S710.31,510.5,710.31,510.5L587.2,225.83S337.46,24.3,551.89,208.75,490-51.68,637.74,248,552.74-4.91,649,230.32s70-130.8-137.4.57c-126.13,79.89-5.92-4.81,64.88-49.17,45.62-28.58,70.73-40.41-3.74,19.31-190.05,152.41-253.31-308.65-22.81-28s265.93,77.38,10,12.6,40.53,111.95,40.53,111.95" transform="translate(-103.23 -44.63)"/><path class="cls-1" d="M300.39,288c2,6.26,17.54,69-85.28,165.86s-23.49,158.32-23.49,158.32l51.87-305.78s194.65-255.15,30.23-25S271.86,13.77,199.66,340s22.42-265.84-15.12-14.47-99.08-110.4,133.59-32.13c141.51,47.6,4.61-6.08-74.72-32.32-51.1-16.91-78.31-22.42,8.22,17.87,220.85,102.84,172.63-360,15.49-32.66s-239.9,138.41-6.73,14.62-12.74,118.37-12.74,118.37" transform="translate(-103.23 -44.63)"/><path class="cls-1" d="M321.92,195.78c1,6.5,6.46,70.9-110.32,150.37S163.49,498.8,163.49,498.8L262.83,205s232.38-221.34,33.79-19.92,40.29-264.63-82.34,46.13,64-259-12.66-16.67-80.47-124.62,137-10.71c132.26,69.28,5.51-5.28-68.7-43.68-47.81-24.74-73.81-34.47,5.31,18.94C477.14,315.4,502.36-149.3,295.66,149.27S37,248.2,286.71,162.65,255.5,277.54,255.5,277.54" transform="translate(-103.23 -44.63)"/></svg>